# xmcd
#
# Track frame offsets: 
#        150
#        14028
#        28818
#        43607
#        57925
#        79969
#        99387
#        119014
#        131324
#        151702
#        172449
#        192588
#
# Disc length: 2765 seconds
#
# Revision: 0
# Processed by: cddbd v1.5.2PL0 Copyright (c) Steve Scherf et al.
# Submitted via: ExactAudioCopy v1.0b3
#
DISCID=a80acb0c
DTITLE=Father and Sons - Both Still Here
DYEAR=1900
DGENRE=
TTITLE0=GUANTANAMERA
TTITLE1=LEMON TREE
TTITLE2=BOTH STILL HERE
TTITLE3=I JUST DON'T WANT TO BE
TTITLE4=MISS NA MISS KITA
TTITLE5=RIGHT HERE WAITING
TTITLE6=LINHA DO EQUADOR
TTITLE7=IS IT OKEV IF I CALL VOU
TTITLE8=BABY I LOVE VOUR WAV
TTITLE9=CHERISH
TTITLE10=IT'S GOOD TO BE HOME
TTITLE11=STAND BV ME
EXTD=
EXTT0=
EXTT1=
EXTT2=
EXTT3=
EXTT4=
EXTT5=
EXTT6=
EXTT7=
EXTT8=
EXTT9=
EXTT10=
EXTT11=
PLAYORDER=
